<mxfile host="app.diagrams.net" modified="2022-12-16T19:28:20.838Z" agent="5.0 (Windows NT 10.0; Win64; x64) AppleWebKit/537.36 (KHTML, like Gecko) Chrome/108.0.0.0 Safari/537.36" version="20.7.4" etag="0PJjlmwQArGkzH4V97V3" type="github">
  <diagram id="D-9X8bX3Nr8X8vBR0656" name="Page-1">
    <mxGraphModel dx="878" dy="467" grid="1" gridSize="10" guides="1" tooltips="1" connect="1" arrows="1" fold="1" page="1" pageScale="1" pageWidth="827" pageHeight="1169" math="0" shadow="0">
      <root>
        <mxCell id="0" />
        <mxCell id="1" parent="0" />
        <mxCell id="6lnZ-JgMJwVvPx6koa_9-1" value="Client" style="shape=umlActor;verticalLabelPosition=bottom;verticalAlign=top;html=1;outlineConnect=0;" vertex="1" parent="1">
          <mxGeometry x="100" y="180" width="50" height="80" as="geometry" />
        </mxCell>
        <mxCell id="6lnZ-JgMJwVvPx6koa_9-2" value="" style="whiteSpace=wrap;html=1;aspect=fixed;" vertex="1" parent="1">
          <mxGeometry x="370" y="150" width="260" height="260" as="geometry" />
        </mxCell>
        <mxCell id="6lnZ-JgMJwVvPx6koa_9-3" value="Se connecter" style="ellipse;whiteSpace=wrap;html=1;" vertex="1" parent="1">
          <mxGeometry x="480" y="160" width="110" height="40" as="geometry" />
        </mxCell>
        <mxCell id="6lnZ-JgMJwVvPx6koa_9-4" value="Retirer" style="ellipse;whiteSpace=wrap;html=1;" vertex="1" parent="1">
          <mxGeometry x="380" y="230" width="110" height="50" as="geometry" />
        </mxCell>
        <mxCell id="6lnZ-JgMJwVvPx6koa_9-5" value="Consulter" style="ellipse;whiteSpace=wrap;html=1;" vertex="1" parent="1">
          <mxGeometry x="480" y="310" width="120" height="50" as="geometry" />
        </mxCell>
        <mxCell id="6lnZ-JgMJwVvPx6koa_9-8" value="" style="endArrow=none;html=1;rounded=0;" edge="1" parent="1" source="6lnZ-JgMJwVvPx6koa_9-1">
          <mxGeometry width="50" height="50" relative="1" as="geometry">
            <mxPoint x="310" y="270" as="sourcePoint" />
            <mxPoint x="380" y="250" as="targetPoint" />
          </mxGeometry>
        </mxCell>
        <mxCell id="6lnZ-JgMJwVvPx6koa_9-11" value="" style="endArrow=none;html=1;rounded=0;" edge="1" parent="1" source="6lnZ-JgMJwVvPx6koa_9-1">
          <mxGeometry width="50" height="50" relative="1" as="geometry">
            <mxPoint x="440" y="380" as="sourcePoint" />
            <mxPoint x="480" y="330" as="targetPoint" />
          </mxGeometry>
        </mxCell>
        <mxCell id="6lnZ-JgMJwVvPx6koa_9-12" value="" style="endArrow=none;html=1;rounded=0;" edge="1" parent="1">
          <mxGeometry width="50" height="50" relative="1" as="geometry">
            <mxPoint x="150" y="220" as="sourcePoint" />
            <mxPoint x="480" y="180" as="targetPoint" />
          </mxGeometry>
        </mxCell>
        <mxCell id="6lnZ-JgMJwVvPx6koa_9-13" value="" style="endArrow=none;dashed=1;html=1;dashPattern=1 3;strokeWidth=2;rounded=0;entryX=0.782;entryY=0.06;entryDx=0;entryDy=0;entryPerimeter=0;" edge="1" parent="1" target="6lnZ-JgMJwVvPx6koa_9-4">
          <mxGeometry width="50" height="50" relative="1" as="geometry">
            <mxPoint x="540" y="200" as="sourcePoint" />
            <mxPoint x="440" y="250" as="targetPoint" />
            <Array as="points">
              <mxPoint x="540" y="200" />
            </Array>
          </mxGeometry>
        </mxCell>
        <mxCell id="6lnZ-JgMJwVvPx6koa_9-18" value="Include" style="edgeLabel;html=1;align=center;verticalAlign=middle;resizable=0;points=[];" vertex="1" connectable="0" parent="6lnZ-JgMJwVvPx6koa_9-13">
          <mxGeometry x="0.3487" relative="1" as="geometry">
            <mxPoint as="offset" />
          </mxGeometry>
        </mxCell>
        <mxCell id="6lnZ-JgMJwVvPx6koa_9-15" value="" style="endArrow=none;dashed=1;html=1;dashPattern=1 3;strokeWidth=2;rounded=0;entryX=0.682;entryY=0.9;entryDx=0;entryDy=0;entryPerimeter=0;" edge="1" parent="1" target="6lnZ-JgMJwVvPx6koa_9-3">
          <mxGeometry width="50" height="50" relative="1" as="geometry">
            <mxPoint x="530" y="310" as="sourcePoint" />
            <mxPoint x="580" y="250" as="targetPoint" />
          </mxGeometry>
        </mxCell>
        <mxCell id="6lnZ-JgMJwVvPx6koa_9-17" value="Include" style="edgeLabel;html=1;align=center;verticalAlign=middle;resizable=0;points=[];" vertex="1" connectable="0" parent="6lnZ-JgMJwVvPx6koa_9-15">
          <mxGeometry x="-0.2121" y="-4" relative="1" as="geometry">
            <mxPoint as="offset" />
          </mxGeometry>
        </mxCell>
      </root>
    </mxGraphModel>
  </diagram>
</mxfile>
